<svg width="25" height="16" viewBox="0 0 25 16" fill="none" xmlns="http://www.w3.org/2000/svg">
<g clip-path="url(#clip0_1720_5329)">
<path d="M0.0234375 0H24.0234V16H0.0234375V0Z" fill="#E52D42"/>
<path d="M18.4235 3.19047H16.2808L14.6995 6.94251L13.0901 5.87117C13.0901 5.87117 11.9346 3.10626 11.4808 2.68053C11.027 2.22672 10.6059 2.65246 9.19305 3.04544C7.80826 3.43842 7.75212 3.92029 7.21879 3.92029C6.99422 3.92029 6.28779 3.10158 5.92288 2.87702C5.3568 2.5121 5.13224 2.68053 5.27259 3.21386C5.32873 3.43842 5.78253 3.7238 6.06323 4.14485C6.42814 4.68287 6.65738 5.35655 6.65738 5.35655C6.65738 5.35655 7.16732 4.87468 7.44803 4.79047C7.86908 4.67819 8.35095 4.87468 8.91703 4.79047C9.62346 4.67819 10.386 4.28053 10.386 4.28053L10.5825 6.31094C10.5825 6.31094 8.04218 8.68287 8.26674 9.61386C8.4913 10.5449 10.8913 11.7004 11.4574 12.5472C12.0235 13.3659 11.1205 13.6747 11.1205 14.0723C11.1205 14.47 11.0363 15.0033 11.4574 14.8349C11.8784 14.6665 11.9393 13.9881 12.3322 13.3659C12.6129 12.9449 12.8141 12.7156 12.8702 12.5472C12.9545 12.1261 11.7708 11.0501 11.1205 10.2595C10.8118 9.89456 10.1895 9.38462 10.1895 9.38462L12.0235 7.99983C12.0235 7.99983 15.186 9.29573 15.8878 8.87468C16.5942 8.45363 16.7907 4.27585 16.7907 4.27585L18.9895 3.73784L18.4235 3.19047Z" fill="white"/>
<path d="M13.0902 12.276C12.8095 12.276 12.5522 12.0515 12.5522 11.738C12.5522 11.4246 12.7767 11.2 13.0902 11.2C13.3709 11.2 13.6282 11.4246 13.6282 11.738C13.6282 12.0515 13.3709 12.276 13.0902 12.276ZM15.2329 3.72397C14.9522 3.72397 14.6949 3.49941 14.6949 3.18596C14.6949 2.87251 14.9194 2.64795 15.2329 2.64795C15.5136 2.64795 15.7709 2.87251 15.7709 3.18596C15.7709 3.49941 15.5136 3.72397 15.2329 3.72397ZM15.2329 7.98596C14.9522 7.98596 14.6949 7.7614 14.6949 7.44795C14.6949 7.16724 14.9194 6.90993 15.2329 6.90993C15.5136 6.90993 15.7709 7.1345 15.7709 7.44795C15.7428 7.7614 15.5136 7.98596 15.2329 7.98596ZM8.8282 10.1286C8.5475 10.1286 8.29019 9.90409 8.29019 9.59064C8.29019 9.30993 8.51475 9.05262 8.8282 9.05262C9.13697 9.05262 9.36621 9.27718 9.36621 9.59064C9.36621 9.90409 9.1089 10.1286 8.8282 10.1286ZM10.9428 3.72397C10.6621 3.72397 10.4048 3.49941 10.4048 3.18596C10.4048 2.87251 10.6294 2.64795 10.9428 2.64795C11.2235 2.64795 11.4808 2.87251 11.4808 3.18596C11.4808 3.49941 11.2563 3.72397 10.9428 3.72397ZM12.0142 7.98596C11.7335 7.98596 11.4762 7.50409 11.4762 6.91461C11.4762 6.32514 11.7007 5.84327 12.0142 5.84327C12.2949 5.84327 12.5522 6.32514 12.5522 6.91461C12.5522 7.50409 12.3276 7.98596 12.0142 7.98596ZM6.68083 5.87134C6.40013 5.87134 6.14282 5.64678 6.14282 5.33333C6.14282 5.02456 6.36738 4.79532 6.68083 4.79532C6.98961 4.79532 7.21885 5.01988 7.21885 5.33333C7.21885 5.6421 6.99428 5.87134 6.68083 5.87134Z" fill="#F8DD4E"/>
</g>
<defs>
<clipPath id="clip0_1720_5329">
<rect width="24" height="16" fill="white" transform="translate(0.0234375)"/>
</clipPath>
</defs>
</svg>
