<svg width="25" height="16" viewBox="0 0 25 16" fill="none" xmlns="http://www.w3.org/2000/svg">
<g clip-path="url(#clip0_1720_5931)">
<path d="M0.0214844 0H24.0215V16.0002H0.0214844V0Z" fill="#0052B4"/>
<path d="M15.5869 5V8.66662C15.5869 10.4527 18.0217 11 18.0217 11C18.0217 11 20.4565 10.4527 20.4565 8.66662V5H15.5869Z" fill="#FFDA44"/>
<path d="M17.6735 6.33316C17.6735 6.70137 17.362 7.66652 16.9779 7.66652C16.5937 7.66652 16.2822 6.70141 16.2822 6.33316C16.2822 5.96491 16.9779 5.6665 16.9779 5.6665C16.9779 5.6665 17.6735 5.96496 17.6735 6.33316Z" fill="#FF9811"/>
<path d="M19.5194 7.05926C19.6316 6.79676 19.719 6.41308 19.719 6.22207C19.719 5.91522 19.3016 5.6665 19.3016 5.6665C19.3016 5.6665 18.8842 5.91522 18.8842 6.22207C18.8842 6.41308 18.9715 6.79676 19.0838 7.05926L18.8428 7.58065C18.989 7.63757 19.1446 7.66667 19.3016 7.66648C19.4639 7.66648 19.6187 7.63582 19.7604 7.58065L19.5194 7.05926Z" fill="#A2001D"/>
<path d="M17.4997 8.66634C17.4997 8.66634 17.1519 9.333 17.1519 9.9997H18.891C18.891 9.33304 18.5431 8.66634 18.5431 8.66634L18.0214 8.33301L17.4997 8.66634Z" fill="#6DA544"/>
<path d="M18.5434 8.66661V8.49997C18.5434 8.22383 18.3099 8 18.0217 8C17.7336 8 17.5 8.22387 17.5 8.49997V8.66661H18.5434Z" fill="#D80027"/>
<path d="M12.0215 0V1.43217L9.90428 2.60869H12.0215V5.39115H9.25103L12.0215 6.93029V7.99984H10.7709L7.32583 6.08612V7.99984H4.71714V5.72297L0.618859 7.99984H0.0214844V6.56762L2.13869 5.39115H0.0214844V2.60869H2.79194L0.0214844 1.06903V0H1.27211L4.71714 1.91367V0H7.32583V2.27681L11.4241 0H12.0215Z" fill="white"/>
<path d="M6.77148 0H5.27148V3.24994H0.0214844V4.74994H5.27148V7.99997H6.77148V4.74994H12.0215V3.24994H6.77148V0Z" fill="#D80027"/>
<path d="M7.32568 5.39111L12.0213 7.99981V7.26213L8.65351 5.39111H7.32568Z" fill="#0052B4"/>
<path d="M7.32568 5.39111L12.0213 7.99981V7.26213L8.65351 5.39111H7.32568Z" fill="white"/>
<path d="M7.32583 5.39111L12.0215 7.99981V7.26213L8.65366 5.39111H7.32583ZM3.38927 5.39111L0.0214844 7.26213V7.99981L4.71714 5.39111H3.38927Z" fill="#D80027"/>
<path d="M4.71714 2.60869L0.0214844 0V0.737672L3.38931 2.60869H4.71714Z" fill="#0052B4"/>
<path d="M4.71714 2.60869L0.0214844 0V0.737672L3.38931 2.60869H4.71714Z" fill="white"/>
<path d="M4.71714 2.60869L0.0214844 0V0.737673L3.38931 2.60869H4.71714ZM8.6537 2.60869L12.0215 0.737673V0L7.32583 2.60869H8.6537Z" fill="#D80027"/>
</g>
<defs>
<clipPath id="clip0_1720_5931">
<rect width="24" height="16" fill="white" transform="translate(0.0214844)"/>
</clipPath>
</defs>
</svg>
